<svg xmlns="http://www.w3.org/2000/svg" viewBox="0 0 407 232"><defs><style>.a{fill:#fff;}.b{fill:#003c75;}.c{opacity:0.4;}.d{fill:#606060;}.e{opacity:0.9;}</style></defs><rect class="a" width="407" height="230.72"/><path class="b" d="M203.54,32.4a82.9,82.9,0,0,0-64,135.7h.68A82.38,82.38,0,0,1,253.73,50h.87A82.54,82.54,0,0,0,203.54,32.4Z"/><path class="b" d="M282.39,89.61h-.56A82.43,82.43,0,0,1,203.54,197.8c-2.41,0-4.8-.12-7.16-.32V198c2.36.2,4.75.31,7.16.31A83,83,0,0,0,282.39,89.61Z"/><g class="c"><path class="d" d="M154.47,165.94a71.5,71.5,0,0,0,121.75-43.73l-.42-.42a71,71,0,0,1-141.19,2.81l-.52-.53A71.23,71.23,0,0,0,154.47,165.94Z"/><path class="d" d="M141.25,83l.33.34A71.07,71.07,0,0,1,255.28,65.1q2.22,2.2,4.18,4.57l.33-.33c-1.33-1.57-2.71-3.08-4.18-4.55A71.54,71.54,0,0,0,141.25,83Z"/><g class="e"><circle class="d" cx="133.57" cy="124.61" r="2.71"/><circle class="d" cx="141.23" cy="83.13" r="3.61"/></g></g><path class="b" d="M208,145.16c-.91-.19-1.83-.31-2.72-.57a14.21,14.21,0,0,1-9.51-8.77c-.32-.84-.38-.77-1.21-.54a2,2,0,0,0-1.65,2.18,7.21,7.21,0,0,1-.15.93H185.4c-.13-.72-.23-1.44-.39-2.15a.89.89,0,0,0-.42-.51,3.51,3.51,0,0,0-1.65-.6c-.53.07-1,.65-1.48,1l-.52.37c-1.73-1.74-3.46-3.47-5.25-5.25.35-.5.75-1.09,1.18-1.65a.64.64,0,0,0,.06-.83.21.21,0,0,1,0-.11c-.22-1.32-1.12-1.74-2.34-1.75a5.32,5.32,0,0,1-.78-.14v-7.39l2.11-.37h.23a3.14,3.14,0,0,0,.78-2.37c-.4-.59-.82-1.17-1.2-1.7l5.25-5.25c.52.37,1.1.81,1.71,1.2a1.29,1.29,0,0,0,.64.08c.11,0,.21-.12.32-.14,1.29-.18,1.55-1.09,1.61-2.18a6.74,6.74,0,0,1,.15-.88h7.38c.12.69.24,1.41.36,2.12.1.55,1.94,1.34,2.38,1,.59-.41,1.17-.83,1.67-1.19l5.26,5.27c-.31.43-.64,1-1.09,1.53a.72.72,0,0,0-.11.93,9.28,9.28,0,0,1,.45,1c.86-.39,1.7-.76,2.52-1.18.13-.07.2-.35.2-.53v-3.61a3.18,3.18,0,0,1,0-.6h5.71v3.87l1.94.25v-8.93h5.8v11a1,1,0,0,0,.4.89c.49.38.93.81,1.48,1.29v-18h5.77v26.85h1.93V95.21h5.81v36.45h-9.65c-.09.64-.15,1.2-.26,1.74a14.18,14.18,0,0,1-9.47,10.92,29,29,0,0,1-3.43.81Zm-11.26-14.4a12.48,12.48,0,1,0,12.46-12.5h0a12.5,12.5,0,0,0-12.43,12.5Zm-21.1-5.65c.6.11,1.14.2,1.67.27a.7.7,0,0,1,.64.55c.36,1,.79,2,1.24,3a.65.65,0,0,1-.07.78c-.35.46-.64.93-.92,1.29l2.94,2.94c.41-.29.87-.64,1.36-1a.86.86,0,0,1,.65,0c1,.39,2,.86,3.05,1.24a.65.65,0,0,1,.52.59c.07.57.18,1.14.28,1.7h4.13c.09-.57.19-1.11.26-1.64a.73.73,0,0,1,.57-.65,21.33,21.33,0,0,0,2.64-1.05c.15-.06.36-.25.36-.38,0-.64-.11-1.29-.17-1.93a9.62,9.62,0,1,1,2.05-13.46,9.87,9.87,0,0,1,1.67,3.74c.46-.43.92-.85,1.34-1.29a.6.6,0,0,0,0-.52c-.29-.71-.6-1.42-.95-2.11a.6.6,0,0,1,0-.73c.36-.46.68-.94,1-1.37l-2.93-2.94c-.39.28-.84.57-1.26.91a.73.73,0,0,1-.92.07,23.41,23.41,0,0,0-2.89-1.19.73.73,0,0,1-.57-.65c-.08-.55-.18-1.09-.27-1.61h-4.09c-.1.59-.16,1.15-.29,1.69a1,1,0,0,1-.47.54c-1,.45-2,.83-3,1.29a.65.65,0,0,1-.78-.07c-.45-.35-.93-.64-1.29-.94l-3,2.94c.3.42.65.88,1,1.38a.84.84,0,0,1,0,.64c-.4,1-.83,2.08-1.29,3.1a.89.89,0,0,1-.53.46c-.56.15-1.13.21-1.72.31v4.1Zm13.42,5.62a7.5,7.5,0,0,0,5.46-2.32,4.06,4.06,0,0,0,.76-1.28c.44-1,.82-2,1.2-3.09a3.09,3.09,0,0,0,.24-1,7.67,7.67,0,1,0-7.66,7.7Zm40.36-33.62v32.63h1.82V97.11Zm-7.72,7.7v17a5.26,5.26,0,0,0,.7,3.22,2.29,2.29,0,0,1,.24.59l.94,3.4V104.81Zm-7.67,4.81v7.31a.44.44,0,0,0,.18.31c.54.24,1.09.46,1.66.7V109.6Zm-7.66,7,1.82-.23v-1.93h-1.82Z"/><path class="b" d="M233.23,91.37H231.3V88.5l-8.73,7-2.76-2.85c-1,1-2,2-3,3a.61.61,0,0,0-.08.51,2.87,2.87,0,0,1-1.8,3.64,2.91,2.91,0,0,1-1.68.05.69.69,0,0,0-.57.17c-1.53,1.66-3,3.33-4.52,5a.82.82,0,0,0-.1.65,2.87,2.87,0,0,1-4.91,2.8,2.8,2.8,0,0,1,.08-3.67.66.66,0,0,0,.14-.78q-1.78-4.69-3.52-9.41c-.11-.29-.23-.48-.6-.5a1.58,1.58,0,0,1-.87-.26c-.44-.35-.76-.22-1.17,0-2.27,1.42-4.55,2.83-6.83,4.21a.68.68,0,0,0-.39.73,2.85,2.85,0,0,1-5.35,1.52A.64.64,0,0,0,184,100h-4.24a.65.65,0,0,0-.65.41,2.79,2.79,0,0,1-3.22,1.42,2.87,2.87,0,0,1,0-5.57,2.77,2.77,0,0,1,3.22,1.41.64.64,0,0,0,.65.4H184a.59.59,0,0,0,.64-.36,2.81,2.81,0,0,1,3.77-1.26,1.35,1.35,0,0,1,.26.15.78.78,0,0,0,.6,0q3.63-2.2,7.22-4.46a.7.7,0,0,0,.28-.53A2.87,2.87,0,0,1,202,89.68a2.81,2.81,0,0,1-.25,3.53.58.58,0,0,0-.12.72q1.79,4.72,3.55,9.46a1.07,1.07,0,0,0,1.46.42l.14-.09c1.48-1.66,3-3.31,4.45-5a.76.76,0,0,0,.12-.65,2.75,2.75,0,0,1,.59-3,2.64,2.64,0,0,1,3-.76.6.6,0,0,0,.71-.22c1.37-1.39,2.76-2.77,4.15-4.17l2.92,3,6.81-5.46h-2.08V85.56h5.8ZM215,97.07a1,1,0,0,0-1-.94.94.94,0,0,0-.92,1v0a.94.94,0,1,0,1.88,0Zm-8.59,9.67a1,1,0,0,0-1.91-.06,1,1,0,0,0,1.9.21A.76.76,0,0,0,206.39,106.74Zm-6.76-16.38a1,1,0,1,0,1,.94A1,1,0,0,0,199.63,90.36ZM177.56,99a1,1,0,0,0-.94-1,1,1,0,0,0-.06,1.9h0A1,1,0,0,0,177.56,99Zm10.56,0a1,1,0,0,0-.89-1,1,1,0,0,0-1,.84,1,1,0,0,0,.85,1.05,1,1,0,0,0,1-.85Z"/><path class="b" d="M202.56,125.27a8.7,8.7,0,0,0-1.87,4.51h1.83v1.93h-1.76c0,2.92,2.79,7.1,7.49,7.63v-1.79h1.94v1.78a8.6,8.6,0,0,0,4.51-1.86l1.18,1.45a10.51,10.51,0,0,1-14.77-14.82Z"/><path class="b" d="M217.34,137.41l-1.43-1.2a8.82,8.82,0,0,0,1.85-4.51H216v-1.94h1.75a8.36,8.36,0,0,0-7.53-7.57v1.75h-1.86v-1.89a19.91,19.91,0,0,0-2.39.72,21.77,21.77,0,0,0-2.18,1.18l-1.14-1.38a10.51,10.51,0,0,1,14.78,14.82Z"/><path class="b" d="M208.32,126h1.89v3.82h1.87v1.86h-3.76Z"/><path class="b" d="M193.85,119.89a5.71,5.71,0,0,1-7.92,7.94l1-1.55a3.88,3.88,0,0,0,5.35-5.36Z"/><path class="b" d="M185.85,125.18l-1.5,1c-1.55-1.85-1.29-5.07.58-7.09a5.7,5.7,0,0,1,7.31-.8l-1,1.54a3.81,3.81,0,0,0-4.87.58C185.11,121.61,185,123.21,185.85,125.18Z"/></svg>